<?xml version="1.0" encoding="UTF-8" standalone="no"?>
<!-- Created with Inkscape (http://www.inkscape.org/) -->

<svg
   xmlns:dc="http://purl.org/dc/elements/1.1/"
   xmlns:cc="http://creativecommons.org/ns#"
   xmlns:rdf="http://www.w3.org/1999/02/22-rdf-syntax-ns#"
   xmlns:svg="http://www.w3.org/2000/svg"
   xmlns="http://www.w3.org/2000/svg"
   xmlns:xlink="http://www.w3.org/1999/xlink"
   xmlns:sodipodi="http://sodipodi.sourceforge.net/DTD/sodipodi-0.dtd"
   xmlns:inkscape="http://www.inkscape.org/namespaces/inkscape"
   width="64"
   height="64"
   viewBox="0 0 16.933333 16.933334"
   version="1.1"
   id="svg8"
   sodipodi:docname="king-piece.svg"
   inkscape:version="0.92.3 (2405546, 2018-03-11)">
  <defs
     id="defs2">
    <inkscape:path-effect
       effect="spiro"
       id="path-effect833"
       is_visible="true" />
    <inkscape:path-effect
       effect="spiro"
       id="path-effect825"
       is_visible="true" />
    <inkscape:path-effect
       effect="spiro"
       id="path-effect821"
       is_visible="true" />
    <inkscape:path-effect
       effect="spiro"
       id="path-effect817"
       is_visible="true" />
    <filter
       height="1"
       width="1"
       y="0"
       x="0"
       style="color-interpolation-filters:sRGB;"
       inkscape:label="Blur"
       id="filter1249">
      <feGaussianBlur
         stdDeviation="0.556393 0.28"
         result="blur"
         id="feGaussianBlur1243" />
      <feColorMatrix
         values="1 0 0 0 0 0 1 0 0 0 0 0 1 0 0 0 0 0 50 0 "
         result="colormatrix"
         id="feColorMatrix1245" />
      <feComposite
         in="colormatrix"
         in2="SourceGraphic"
         operator="in"
         id="feComposite1247" />
    </filter>
    <filter
       height="1"
       width="1"
       y="0"
       x="0"
       style="color-interpolation-filters:sRGB;"
       inkscape:label="Blur"
       id="filter1583">
      <feGaussianBlur
         stdDeviation="0.28 0.283197"
         result="blur"
         id="feGaussianBlur1577" />
      <feColorMatrix
         values="1 0 0 0 0 0 1 0 0 0 0 0 1 0 0 0 0 0 50 0 "
         result="colormatrix"
         id="feColorMatrix1579" />
      <feComposite
         in="colormatrix"
         in2="SourceGraphic"
         operator="in"
         id="feComposite1581"
         result="fbSourceGraphic" />
      <feColorMatrix
         result="fbSourceGraphicAlpha"
         in="fbSourceGraphic"
         values="0 0 0 -1 0 0 0 0 -1 0 0 0 0 -1 0 0 0 0 1 0"
         id="feColorMatrix1585" />
      <feGaussianBlur
         id="feGaussianBlur1587"
         stdDeviation="0.28 0.28"
         result="blur"
         in="fbSourceGraphic" />
      <feColorMatrix
         id="feColorMatrix1589"
         values="1 0 0 0 0 0 1 0 0 0 0 0 1 0 0 0 0 0 50 0 "
         result="colormatrix" />
      <feComposite
         in2="fbSourceGraphic"
         id="feComposite1591"
         in="colormatrix"
         operator="in" />
    </filter>
    <filter
       inkscape:label="Basic Two Lights Bump"
       inkscape:menu="Bumps"
       inkscape:menu-tooltip="Two types of lighting emboss effect"
       style="color-interpolation-filters:sRGB;"
       id="filter1635">
      <feColorMatrix
         result="result2"
         type="luminanceToAlpha"
         in="SourceGraphic"
         id="feColorMatrix1619" />
      <feSpecularLighting
         specularConstant="0.5"
         surfaceScale="-15"
         specularExponent="10"
         result="result10"
         id="feSpecularLighting1623">
        <feDistantLight
           elevation="20"
           azimuth="225"
           id="feDistantLight1621" />
      </feSpecularLighting>
      <feDiffuseLighting
         diffuseConstant="0.5"
         surfaceScale="15"
         id="feDiffuseLighting1627">
        <feDistantLight
           azimuth="225"
           elevation="20"
           id="feDistantLight1625" />
      </feDiffuseLighting>
      <feComposite
         result="result11"
         in2="result10"
         operator="arithmetic"
         k2="0.5"
         k3="0.5"
         id="feComposite1629" />
      <feComposite
         in="result11"
         result="result9"
         operator="arithmetic"
         k2="1"
         k3="1"
         in2="SourceGraphic"
         id="feComposite1631" />
      <feComposite
         in2="SourceGraphic"
         operator="in"
         in="result9"
         id="feComposite1633" />
    </filter>
    <filter
       inkscape:label="Black Hole"
       inkscape:menu="Morphology"
       inkscape:menu-tooltip="Creates a black light inside and outside"
       height="1.5"
       width="1.5"
       y="-0.25"
       x="-0.25"
       style="color-interpolation-filters:sRGB;"
       id="filter2009">
      <feGaussianBlur
         stdDeviation="5"
         in="SourceAlpha"
         result="result1"
         id="feGaussianBlur1997" />
      <feComposite
         operator="arithmetic"
         k2="3.2"
         k1="-1"
         k4="-2"
         result="result3"
         in2="result1"
         id="feComposite1999" />
      <feColorMatrix
         values="1 0 0 0 0 0 1 0 0 0 0 0 1 0 0 0 0 0 10 0 "
         result="result2"
         id="feColorMatrix2001" />
      <feComposite
         result="fbSourceGraphic"
         in="SourceGraphic"
         operator="out"
         in2="result2"
         id="feComposite2003" />
      <feBlend
         mode="multiply"
         in="result1"
         in2="fbSourceGraphic"
         result="result91"
         id="feBlend2005" />
      <feBlend
         mode="screen"
         in="fbSourceGraphic"
         in2="result91"
         id="feBlend2007" />
    </filter>
    <filter
       inkscape:menu-tooltip="Pressed metal with a rolled edge"
       inkscape:menu="Bevels"
       inkscape:label="Pressed Steel"
       style="color-interpolation-filters:sRGB;"
       id="filter2115">
      <feGaussianBlur
         result="result1"
         stdDeviation="3"
         id="feGaussianBlur2093" />
      <feBlend
         in2="result1"
         result="result5"
         mode="multiply"
         in="result1"
         id="feBlend2095" />
      <feGaussianBlur
         in="result5"
         result="result6"
         stdDeviation="1"
         id="feGaussianBlur2097" />
      <feComposite
         result="result8"
         in2="result5"
         in="result6"
         operator="xor"
         id="feComposite2099" />
      <feComposite
         in="result6"
         result="fbSourceGraphic"
         operator="xor"
         in2="result8"
         id="feComposite2101" />
      <feSpecularLighting
         in="fbSourceGraphic"
         result="result1"
         lighting-color="rgb(255,255,255)"
         surfaceScale="2"
         specularConstant="2.2"
         specularExponent="55"
         id="feSpecularLighting2105">
        <fePointLight
           x="-5000"
           y="-10000"
           z="20000"
           id="fePointLight2103" />
      </feSpecularLighting>
      <feComposite
         in2="fbSourceGraphic"
         in="result1"
         result="result2"
         operator="in"
         id="feComposite2107" />
      <feComposite
         in="fbSourceGraphic"
         result="result4"
         operator="arithmetic"
         k2="2"
         k3="1"
         in2="result2"
         id="feComposite2109" />
      <feComposite
         in2="result4"
         in="result4"
         operator="in"
         result="result91"
         id="feComposite2111" />
      <feBlend
         mode="darken"
         in2="result91"
         id="feBlend2113" />
    </filter>
    <filter
       inkscape:label="Sharpen"
       inkscape:menu="Image Effects"
       inkscape:menu-tooltip="Sharpen edges and boundaries within the object, force=0.15"
       style="color-interpolation-filters:sRGB;"
       id="filter986">
      <feConvolveMatrix
         order="3 3"
         kernelMatrix="0 -0.15 0 -0.15 1.6 -0.15 0 -0.15 0"
         divisor="1"
         in="SourceGraphic"
         targetX="1"
         targetY="1"
         id="feConvolveMatrix984" />
    </filter>
    <filter
       height="1"
       width="1"
       y="0"
       x="0"
       style="color-interpolation-filters:sRGB"
       inkscape:label="Blur"
       id="filter1249-7">
      <feGaussianBlur
         stdDeviation="0.556393 0.28"
         result="blur"
         id="feGaussianBlur1243-9" />
      <feColorMatrix
         values="1 0 0 0 0 0 1 0 0 0 0 0 1 0 0 0 0 0 50 0 "
         result="colormatrix"
         id="feColorMatrix1245-8" />
      <feComposite
         in="colormatrix"
         in2="SourceGraphic"
         operator="in"
         id="feComposite1247-6" />
    </filter>
    <filter
       height="1"
       width="1"
       y="0"
       x="0"
       style="color-interpolation-filters:sRGB"
       inkscape:label="Blur"
       id="filter1583-7">
      <feGaussianBlur
         stdDeviation="0.28 0.283197"
         result="blur"
         id="feGaussianBlur1577-0" />
      <feColorMatrix
         values="1 0 0 0 0 0 1 0 0 0 0 0 1 0 0 0 0 0 50 0 "
         result="colormatrix"
         id="feColorMatrix1579-4" />
      <feComposite
         in="colormatrix"
         in2="SourceGraphic"
         operator="in"
         id="feComposite1581-8"
         result="fbSourceGraphic" />
      <feColorMatrix
         result="fbSourceGraphicAlpha"
         in="fbSourceGraphic"
         values="0 0 0 -1 0 0 0 0 -1 0 0 0 0 -1 0 0 0 0 1 0"
         id="feColorMatrix1585-4" />
      <feGaussianBlur
         id="feGaussianBlur1587-8"
         stdDeviation="0.28 0.28"
         result="blur"
         in="fbSourceGraphic" />
      <feColorMatrix
         id="feColorMatrix1589-1"
         values="1 0 0 0 0 0 1 0 0 0 0 0 1 0 0 0 0 0 50 0 "
         result="colormatrix" />
      <feComposite
         in2="fbSourceGraphic"
         id="feComposite1591-6"
         in="colormatrix"
         operator="in" />
    </filter>
    <radialGradient
       gradientTransform="matrix(1.0416654,0,0,1.0416654,-0.35276654,-12.021856)"
       inkscape:collect="always"
       xlink:href="#linearGradient2120"
       id="radialGradient2122"
       cx="9.3596354"
       cy="290.22003"
       fx="9.3596354"
       fy="290.22003"
       r="6.9850082"
       gradientUnits="userSpaceOnUse" />
    <linearGradient
       inkscape:collect="always"
       id="linearGradient2120">
      <stop
         style="stop-color:#e9e9e9;stop-opacity:1"
         offset="0"
         id="stop2116" />
      <stop
         style="stop-color:#d9d9d9;stop-opacity:1"
         offset="1"
         id="stop2118" />
    </linearGradient>
    <filter
       height="1"
       width="1"
       y="0"
       x="0"
       style="color-interpolation-filters:sRGB"
       inkscape:label="Blur"
       id="filter1583-7-4">
      <feGaussianBlur
         stdDeviation="0.28 0.283197"
         result="blur"
         id="feGaussianBlur1577-0-0" />
      <feColorMatrix
         values="1 0 0 0 0 0 1 0 0 0 0 0 1 0 0 0 0 0 50 0 "
         result="colormatrix"
         id="feColorMatrix1579-4-3" />
      <feComposite
         in="colormatrix"
         in2="SourceGraphic"
         operator="in"
         id="feComposite1581-8-9"
         result="fbSourceGraphic" />
      <feColorMatrix
         result="fbSourceGraphicAlpha"
         in="fbSourceGraphic"
         values="0 0 0 -1 0 0 0 0 -1 0 0 0 0 -1 0 0 0 0 1 0"
         id="feColorMatrix1585-4-1" />
      <feGaussianBlur
         id="feGaussianBlur1587-8-9"
         stdDeviation="0.28 0.28"
         result="blur"
         in="fbSourceGraphic" />
      <feColorMatrix
         id="feColorMatrix1589-1-6"
         values="1 0 0 0 0 0 1 0 0 0 0 0 1 0 0 0 0 0 50 0 "
         result="colormatrix" />
      <feComposite
         in2="fbSourceGraphic"
         id="feComposite1591-6-9"
         in="colormatrix"
         operator="in" />
    </filter>
  </defs>
  <sodipodi:namedview
     id="base"
     pagecolor="#ffffff"
     bordercolor="#666666"
     borderopacity="1.0"
     inkscape:pageopacity="0.0"
     inkscape:pageshadow="2"
     inkscape:zoom="8.0000001"
     inkscape:cx="17.182635"
     inkscape:cy="16.530803"
     inkscape:document-units="mm"
     inkscape:current-layer="layer1"
     showgrid="false"
     units="px"
     inkscape:snap-global="false"
     inkscape:window-width="1920"
     inkscape:window-height="1021"
     inkscape:window-x="0"
     inkscape:window-y="0"
     inkscape:window-maximized="1" />
  <metadata
     id="metadata5">
    <rdf:RDF>
      <cc:Work
         rdf:about="">
        <dc:format>image/svg+xml</dc:format>
        <dc:type
           rdf:resource="http://purl.org/dc/dcmitype/StillImage" />
        <dc:title />
      </cc:Work>
    </rdf:RDF>
  </metadata>
  <g
     inkscape:label="Camada 1"
     inkscape:groupmode="layer"
     id="layer1"
     transform="translate(0,-280.06665)">
    <path
       style="fill:url(#radialGradient2122);fill-opacity:1;stroke:none;stroke-width:4.53115368;stroke-linecap:round;stroke-miterlimit:4;stroke-dasharray:none;stroke-dashoffset:0;stroke-opacity:1"
       id="path829-8"
       sodipodi:type="arc"
       sodipodi:cx="8.4666662"
       sodipodi:cy="288.53333"
       sodipodi:rx="7.2760415"
       sodipodi:ry="7.2760415"
       sodipodi:start="0"
       sodipodi:end="6.2830806"
       d="m 15.742708,288.53333 a 7.2760415,7.2760415 0 0 1 -7.2758513,7.27604 7.2760415,7.2760415 0 0 1 -7.276232,-7.27566 7.2760415,7.2760415 0 0 1 7.2754701,-7.27643 7.2760415,7.2760415 0 0 1 7.2766132,7.27528 l -7.2760418,7.7e-4 z" />
    <g
       id="g939"
       style="fill:#f9f9f9"
       transform="matrix(1.0416654,0,0,1.0416654,-0.35276758,-12.021865)">
      <path
         transform="matrix(5.0445028,0,0,5.0445028,-24.059343,-1165.0464)"
         inkscape:connector-curvature="0"
         id="path862-5"
         d="m 7.4033913,287.6451 -0.98909,0.47878 0.989705,-0.47857 a 1.0925021,1.1030917 64.194899 0 0 -6.15e-4,-2.1e-4 z m -1.9134162,1.0957 a 1.0925021,1.1030917 64.194899 0 0 1.4374878,0.44435 1.0925021,1.1030917 64.194899 0 0 0.5475503,-1.39192 1.1528153,1.111692 64.194899 0 1 -0.5589558,1.36833 1.1528153,1.111692 64.194899 0 1 -1.4260823,-0.42076 z"
         style="fill:#f9f9f9;fill-opacity:1;stroke:none;stroke-width:0.68364489;stroke-linecap:round;stroke-miterlimit:4;stroke-dasharray:none;stroke-dashoffset:0;stroke-opacity:1;filter:url(#filter1583-7)" />
      <path
         transform="matrix(5.0445027,0,0,5.0445027,-23.997747,-1164.9373)"
         inkscape:connector-curvature="0"
         id="path862-5-3"
         d="m 7.4033913,287.6451 -0.98909,0.47878 0.989705,-0.47857 a 1.0925021,1.1030917 64.194899 0 0 -6.15e-4,-2.1e-4 z m -1.9134162,1.0957 a 1.0925021,1.1030917 64.194899 0 0 1.4374878,0.44435 1.0925021,1.1030917 64.194899 0 0 0.5475503,-1.39192 1.1528153,1.111692 64.194899 0 1 -0.5589558,1.36833 1.1528153,1.111692 64.194899 0 1 -1.4260823,-0.42076 z"
         style="fill:#f9f9f9;fill-opacity:1;stroke:none;stroke-width:0.68364489;stroke-linecap:round;stroke-miterlimit:4;stroke-dasharray:none;stroke-dashoffset:0;stroke-opacity:1;filter:url(#filter1583-7-4)" />
    </g>
    <g
       id="g943"
       transform="matrix(1.0416654,0,0,1.0416654,-0.35276758,-12.021865)">
      <path
         transform="matrix(4.9649494,0,0,4.9649494,-23.63898,-1142.5031)"
         style="fill:#999999;fill-opacity:1;stroke:none;stroke-width:0.68364489;stroke-linecap:round;stroke-miterlimit:4;stroke-dasharray:none;stroke-dashoffset:0;stroke-opacity:1;filter:url(#filter1249-7)"
         d="m 5.5018496,288.73373 0.98909,-0.47878 -0.989705,0.47857 a 1.0925021,1.1030917 64.194899 0 0 6.15e-4,2.1e-4 z m 1.9134162,-1.0957 a 1.0925021,1.1030917 64.194899 0 0 -1.4374878,-0.44435 1.0925021,1.1030917 64.194899 0 0 -0.5475503,1.39192 1.1528153,1.111692 64.194899 0 1 0.5589558,-1.36833 1.1528153,1.111692 64.194899 0 1 1.4260823,0.42076 z"
         id="path881-2"
         inkscape:connector-curvature="0" />
      <path
         inkscape:connector-curvature="0"
         id="path935"
         d="m 5.5018496,288.73373 0.98909,-0.47878 -0.989705,0.47857 a 1.0925021,1.1030917 64.194899 0 0 6.15e-4,2.1e-4 z m 1.9134162,-1.0957 a 1.0925021,1.1030917 64.194899 0 0 -1.4374878,-0.44435 1.0925021,1.1030917 64.194899 0 0 -0.5475503,1.39192 1.1528153,1.111692 64.194899 0 1 0.5589558,-1.36833 1.1528153,1.111692 64.194899 0 1 1.4260823,0.42076 z"
         style="fill:#999999;fill-opacity:1;stroke:none;stroke-width:0.68364489;stroke-linecap:round;stroke-miterlimit:4;stroke-dasharray:none;stroke-dashoffset:0;stroke-opacity:1;filter:url(#filter1249-7)"
         transform="matrix(4.9649494,0,0,4.9649494,-23.738199,-1142.6023)" />
    </g>
    <path
       d="m 11.224286,292.12541 c 0,0.12881 -0.104436,0.23325 -0.233255,0.23325 H 5.9216266 c -0.1288189,0 -0.2332549,-0.10444 -0.2332549,-0.23325 v -0.49762 c 0,-0.12881 0.104436,-0.23325 0.2332549,-0.23325 h 5.0694044 c 0.128819,0 0.233255,0.10444 0.233255,0.23325 z m 0.92428,-5.83673 c -0.106426,-0.0444 -0.229491,-0.004 -0.289298,0.0945 l -1.109858,1.83295 -0.01238,-3.27574 c -4.7e-4,-0.11778 -0.08867,-0.21677 -0.205606,-0.23074 -0.116783,-0.014 -0.225977,0.0615 -0.254123,0.17585 l -0.8378824,3.40325 -0.7563056,-1.8792 c -0.035579,-0.0883 -0.1211992,-0.14614 -0.2163983,-0.14614 -0.09523,0 -0.1808502,0.0579 -0.2163982,0.14617 l -0.7563678,1.87982 -0.8378822,-3.40207 c -0.028146,-0.11436 -0.1368429,-0.18984 -0.2541545,-0.17584 -0.1169385,0.014 -0.2051399,0.11296 -0.2055753,0.23073 l -0.012347,3.26803 -1.1092047,-1.85699 c -0.05928,-0.0993 -0.182312,-0.14011 -0.289143,-0.096 -0.106893,0.044 -0.165331,0.15973 -0.137464,0.27191 l 1.026321,4.12862 c 0.025844,0.10396 0.1192087,0.17696 0.2263504,0.17696 h 5.1316056 c 0.106987,0 0.200258,-0.0728 0.226258,-0.17659 l 1.026321,-4.09748 c 0.02808,-0.11193 -0.02998,-0.22756 -0.13647,-0.27195 z"
       id="path2"
       inkscape:connector-curvature="0"
       style="stroke-width:0.03110064;fill:#e9ddaf" />
    <path
       style="fill:#d4aa00;stroke-width:0.02919866"
       inkscape:connector-curvature="0"
       id="path3244"
       d="m 11.152763,292.04839 c 0,0.11656 -0.101725,0.21106 -0.227205,0.21106 H 5.9876366 c -0.1254777,0 -0.2272051,-0.0945 -0.2272051,-0.21106 v -0.4503 c 0,-0.11656 0.1017276,-0.21107 0.2272051,-0.21107 h 4.9379214 c 0.125477,0 0.227205,0.0945 0.227205,0.21107 z m 0.900306,-5.28165 c -0.10367,-0.0402 -0.223538,-0.004 -0.281794,0.0855 l -1.081072,1.65864 -0.01206,-2.96422 c -4.58e-4,-0.10658 -0.08637,-0.19615 -0.200274,-0.20879 -0.113754,-0.0127 -0.220116,0.0557 -0.247531,0.15912 l -0.8161515,3.0796 -0.7366894,-1.70049 c -0.034656,-0.0799 -0.1180557,-0.13224 -0.2107857,-0.13224 -0.092761,0 -0.1761594,0.0524 -0.2107855,0.13227 l -0.736751,1.70105 -0.8161503,-3.07853 c -0.027416,-0.10348 -0.1332936,-0.17179 -0.2475626,-0.15912 -0.1139055,0.0127 -0.1998192,0.10222 -0.2002433,0.20879 l -0.012027,2.95723 -1.0804355,-1.68038 c -0.057743,-0.0899 -0.1775835,-0.12679 -0.2816436,-0.0869 -0.1041197,0.0398 -0.1610428,0.14454 -0.1338986,0.24605 l 0.9997015,3.73598 c 0.025173,0.0941 0.1161169,0.16013 0.2204797,0.16013 h 4.9985078 c 0.104215,0 0.195065,-0.0659 0.22039,-0.1598 l 0.999702,-3.7078 c 0.02735,-0.10128 -0.02921,-0.20592 -0.132931,-0.24609 z" />
  </g>
</svg>
